<svg width="1600" height="1000" viewBox="0 0 1600 1000" fill="none" xmlns="http://www.w3.org/2000/svg">
  <rect width="1600" height="1000" rx="40" fill="#F4EFE7"/>
  <rect x="70" y="70" width="1460" height="860" rx="30" fill="#FFF9F3" stroke="#D9CABB"/>
  <rect x="120" y="116" width="1360" height="66" rx="18" fill="#FFF4E8"/>
  <rect x="154" y="139" width="130" height="18" rx="9" fill="#1E1510" fill-opacity="0.16"/>
  <rect x="1130" y="139" width="110" height="18" rx="9" fill="#1E1510" fill-opacity="0.12"/>
  <rect x="1260" y="139" width="110" height="18" rx="9" fill="#1E1510" fill-opacity="0.12"/>
  <rect x="1388" y="129" width="52" height="38" rx="19" fill="#C06A2A"/>
  <rect x="120" y="232" width="880" height="300" rx="28" fill="#1F1813"/>
  <rect x="168" y="278" width="226" height="18" rx="9" fill="#F7EDE2" fill-opacity="0.32"/>
  <rect x="168" y="320" width="470" height="70" rx="20" fill="#FFF9F3"/>
  <rect x="168" y="416" width="360" height="18" rx="9" fill="#F7EDE2" fill-opacity="0.34"/>
  <rect x="168" y="448" width="312" height="18" rx="9" fill="#F7EDE2" fill-opacity="0.22"/>
  <rect x="168" y="588" width="262" height="126" rx="22" fill="#EFE1D0"/>
  <rect x="448" y="588" width="262" height="126" rx="22" fill="#EFE1D0"/>
  <rect x="728" y="588" width="262" height="126" rx="22" fill="#EFE1D0"/>
  <rect x="1042" y="232" width="438" height="482" rx="28" fill="#21443E"/>
  <rect x="1086" y="280" width="148" height="16" rx="8" fill="#F7EDE2" fill-opacity="0.4"/>
  <rect x="1086" y="330" width="306" height="24" rx="12" fill="#FFF9F3"/>
  <rect x="1086" y="386" width="346" height="118" rx="20" fill="#F0DCCA"/>
  <rect x="1086" y="528" width="150" height="88" rx="18" fill="#FFF9F3"/>
  <rect x="1252" y="528" width="180" height="88" rx="18" fill="#FFF9F3"/>
  <rect x="1086" y="766" width="394" height="112" rx="24" fill="#FFF4E8"/>
  <rect x="120" y="766" width="880" height="112" rx="24" fill="#FFF4E8"/>
</svg>
