<svg width="1600" height="1000" viewBox="0 0 1600 1000" fill="none" xmlns="http://www.w3.org/2000/svg">
  <rect width="1600" height="1000" rx="40" fill="#F6EFE6"/>
  <rect x="80" y="80" width="1440" height="840" rx="28" fill="#FFF9F2" stroke="#D8C8B8"/>
  <rect x="132" y="128" width="140" height="16" rx="8" fill="#21443E" fill-opacity="0.18"/>
  <rect x="132" y="180" width="440" height="24" rx="12" fill="#21443E" fill-opacity="0.16"/>
  <rect x="132" y="224" width="560" height="92" rx="24" fill="#1F1813"/>
  <rect x="132" y="340" width="460" height="22" rx="11" fill="#7B6B60" fill-opacity="0.38"/>
  <rect x="132" y="376" width="390" height="22" rx="11" fill="#7B6B60" fill-opacity="0.28"/>
  <rect x="132" y="438" width="186" height="58" rx="29" fill="#C06A2A"/>
  <rect x="338" y="438" width="178" height="58" rx="29" fill="#FFF9F2" stroke="#D8C8B8"/>
  <rect x="132" y="550" width="178" height="90" rx="22" fill="#F3E4D5"/>
  <rect x="332" y="550" width="178" height="90" rx="22" fill="#F3E4D5"/>
  <rect x="532" y="550" width="178" height="90" rx="22" fill="#F3E4D5"/>
  <rect x="920" y="178" width="460" height="580" rx="30" fill="#21443E"/>
  <rect x="964" y="226" width="172" height="16" rx="8" fill="#F7EDE2" fill-opacity="0.44"/>
  <rect x="964" y="276" width="280" height="34" rx="17" fill="#FFF9F2"/>
  <rect x="964" y="330" width="372" height="18" rx="9" fill="#F7EDE2" fill-opacity="0.44"/>
  <rect x="964" y="362" width="320" height="18" rx="9" fill="#F7EDE2" fill-opacity="0.28"/>
  <rect x="964" y="430" width="372" height="120" rx="20" fill="#EFD8C3"/>
  <rect x="964" y="572" width="176" height="74" rx="18" fill="#F7EDE2"/>
  <rect x="1160" y="572" width="176" height="74" rx="18" fill="#F7EDE2"/>
  <rect x="964" y="780" width="252" height="40" rx="20" fill="#C06A2A"/>
  <circle cx="1000" cy="490" r="46" fill="#21443E" fill-opacity="0.18"/>
  <circle cx="1090" cy="490" r="46" fill="#21443E" fill-opacity="0.12"/>
  <circle cx="1180" cy="490" r="46" fill="#21443E" fill-opacity="0.08"/>
</svg>
