<svg width="1200" height="900" viewBox="0 0 1200 900" fill="none" xmlns="http://www.w3.org/2000/svg">
  <rect width="1200" height="900" rx="40" fill="#F7EFE7"/>
  <circle cx="188" cy="734" r="194" fill="#EFD5C1"/>
  <circle cx="1030" cy="166" r="172" fill="#DEEAE5"/>
  <rect x="92" y="118" width="1016" height="664" rx="36" fill="#FFF9F2" stroke="#E5D8CC" stroke-width="4"/>
  <rect x="142" y="178" width="330" height="526" rx="30" fill="#21443F"/>
  <rect x="520" y="178" width="196" height="196" rx="24" fill="#F2E6DB"/>
  <rect x="750" y="178" width="196" height="196" rx="24" fill="#F2E6DB"/>
  <rect x="520" y="408" width="196" height="196" rx="24" fill="#F2E6DB"/>
  <rect x="750" y="408" width="196" height="196" rx="24" fill="#B86836"/>
  <path d="M472 276H520" stroke="#21443F" stroke-width="14" stroke-linecap="round"/>
  <path d="M716 276H750" stroke="#21443F" stroke-width="14" stroke-linecap="round"/>
  <path d="M618 374V408" stroke="#21443F" stroke-width="14" stroke-linecap="round"/>
  <path d="M848 374V408" stroke="#21443F" stroke-width="14" stroke-linecap="round"/>
  <text x="182" y="248" fill="#FFF9F3" font-size="42" font-family="Arial, sans-serif" font-weight="700">INTEGRATIONS</text>
  <text x="182" y="304" fill="#FFF9F3" font-size="42" font-family="Arial, sans-serif" font-weight="700">THAT HELP</text>
  <text x="558" y="282" fill="#21443F" font-size="28" font-family="Arial, sans-serif" font-weight="700">CRM</text>
  <text x="782" y="282" fill="#21443F" font-size="28" font-family="Arial, sans-serif" font-weight="700">Forms</text>
  <text x="548" y="512" fill="#21443F" font-size="28" font-family="Arial, sans-serif" font-weight="700">Calendar</text>
  <text x="786" y="512" fill="#FFF9F3" font-size="28" font-family="Arial, sans-serif" font-weight="700">Automation</text>
</svg>
