<svg width="1200" height="900" viewBox="0 0 1200 900" fill="none" xmlns="http://www.w3.org/2000/svg">
  <rect width="1200" height="900" rx="40" fill="#F5EFE7"/>
  <circle cx="1030" cy="150" r="168" fill="#E6EFEA"/>
  <circle cx="170" cy="760" r="188" fill="#F0D5BF"/>
  <rect x="94" y="110" width="1012" height="680" rx="36" fill="#FFF9F2" stroke="#E3D5C7" stroke-width="4"/>
  <rect x="148" y="170" width="408" height="560" rx="28" fill="#21443F"/>
  <rect x="620" y="190" width="380" height="54" rx="18" fill="#EAD4C2"/>
  <rect x="620" y="270" width="300" height="36" rx="14" fill="#F1E5D9"/>
  <rect x="620" y="334" width="358" height="36" rx="14" fill="#F1E5D9"/>
  <rect x="620" y="398" width="404" height="36" rx="14" fill="#F1E5D9"/>
  <rect x="620" y="484" width="188" height="88" rx="22" fill="#F4E9DE"/>
  <rect x="836" y="484" width="188" height="88" rx="22" fill="#F4E9DE"/>
  <rect x="620" y="606" width="404" height="88" rx="22" fill="#B86836"/>
  <text x="188" y="270" fill="#FFF9F3" font-size="48" font-family="Arial, sans-serif" font-weight="700">FREELANCE</text>
  <text x="188" y="336" fill="#FFF9F3" font-size="48" font-family="Arial, sans-serif" font-weight="700">DEVELOPER</text>
  <text x="188" y="402" fill="#FFF9F3" font-size="48" font-family="Arial, sans-serif" font-weight="700">CHECKLIST</text>
  <text x="670" y="538" fill="#21443F" font-size="28" font-family="Arial, sans-serif" font-weight="700">Portfolio</text>
  <text x="888" y="538" fill="#21443F" font-size="28" font-family="Arial, sans-serif" font-weight="700">Process</text>
  <text x="668" y="662" fill="#FFF9F3" font-size="32" font-family="Arial, sans-serif" font-weight="700">Questions to ask</text>
</svg>
