<svg width="1200" height="900" viewBox="0 0 1200 900" fill="none" xmlns="http://www.w3.org/2000/svg">
  <rect width="1200" height="900" rx="40" fill="#F6EEE6"/>
  <circle cx="1038" cy="166" r="170" fill="#E8D1BD"/>
  <circle cx="166" cy="706" r="178" fill="#DCEAE5"/>
  <rect x="86" y="108" width="1028" height="684" rx="36" fill="#FFF9F3" stroke="#E5D8CB" stroke-width="4"/>
  <rect x="154" y="174" width="892" height="112" rx="28" fill="#21443F"/>
  <rect x="154" y="332" width="276" height="158" rx="24" fill="#F2E7DB"/>
  <rect x="462" y="332" width="276" height="158" rx="24" fill="#F2E7DB"/>
  <rect x="770" y="332" width="276" height="158" rx="24" fill="#F2E7DB"/>
  <rect x="154" y="528" width="276" height="158" rx="24" fill="#F2E7DB"/>
  <rect x="462" y="528" width="276" height="158" rx="24" fill="#F2E7DB"/>
  <rect x="770" y="528" width="276" height="158" rx="24" fill="#B86836"/>
  <text x="194" y="242" fill="#FFF9F3" font-size="54" font-family="Arial, sans-serif" font-weight="700">7 WEBSITE MISTAKES</text>
  <text x="196" y="410" fill="#21443F" font-size="28" font-family="Arial, sans-serif" font-weight="700">Slow pages</text>
  <text x="504" y="410" fill="#21443F" font-size="28" font-family="Arial, sans-serif" font-weight="700">Weak CTA</text>
  <text x="812" y="410" fill="#21443F" font-size="28" font-family="Arial, sans-serif" font-weight="700">Generic copy</text>
  <text x="200" y="606" fill="#21443F" font-size="28" font-family="Arial, sans-serif" font-weight="700">No proof</text>
  <text x="510" y="606" fill="#21443F" font-size="28" font-family="Arial, sans-serif" font-weight="700">Bad mobile UX</text>
  <text x="824" y="606" fill="#FFF9F3" font-size="28" font-family="Arial, sans-serif" font-weight="700">No lead flow</text>
</svg>
