<svg width="1200" height="900" viewBox="0 0 1200 900" fill="none" xmlns="http://www.w3.org/2000/svg">
  <rect width="1200" height="900" rx="40" fill="#F7EEE5"/>
  <circle cx="194" cy="186" r="132" fill="#EBC5A7"/>
  <circle cx="1010" cy="128" r="174" fill="#DCE8E4"/>
  <circle cx="928" cy="700" r="190" fill="#EFD7C3"/>
  <rect x="92" y="112" width="1016" height="676" rx="36" fill="#FFF9F2" stroke="#E8D8CB" stroke-width="4"/>
  <rect x="152" y="188" width="360" height="252" rx="24" fill="#21443F"/>
  <rect x="560" y="188" width="488" height="56" rx="18" fill="#EBD6C4"/>
  <rect x="560" y="270" width="414" height="40" rx="14" fill="#F2E5D8"/>
  <rect x="560" y="332" width="448" height="40" rx="14" fill="#F2E5D8"/>
  <rect x="152" y="492" width="264" height="168" rx="24" fill="#F3E8DD"/>
  <rect x="444" y="492" width="264" height="168" rx="24" fill="#F3E8DD"/>
  <rect x="736" y="492" width="312" height="168" rx="24" fill="#B86836"/>
  <text x="196" y="270" fill="#FFF9F3" font-size="58" font-family="Arial, sans-serif" font-weight="700">PRICE</text>
  <text x="196" y="338" fill="#FFF9F3" font-size="58" font-family="Arial, sans-serif" font-weight="700">GUIDE</text>
  <text x="194" y="585" fill="#21443F" font-size="34" font-family="Arial, sans-serif" font-weight="700">Landing page</text>
  <text x="486" y="585" fill="#21443F" font-size="34" font-family="Arial, sans-serif" font-weight="700">Business site</text>
  <text x="778" y="585" fill="#FFF9F3" font-size="34" font-family="Arial, sans-serif" font-weight="700">Budget range</text>
</svg>
